<mxfile host="app.diagrams.net" modified="2021-04-18T17:20:50.578Z" agent="5.0 (X11)" etag="_R_iNpGJnfK8VwzMvhzH" version="14.5.10" type="github" pages="4">
  <diagram id="ejk6qiT4-OlarZjQJhMu" name="event-isolation-seq">
    <mxGraphModel dx="1422" dy="804" grid="1" gridSize="10" guides="1" tooltips="1" connect="1" arrows="1" fold="1" page="1" pageScale="1" pageWidth="850" pageHeight="1100" math="0" shadow="0">
      <root>
        <mxCell id="ZKhoZdGTQgAjR5LdTw5_-0" />
        <mxCell id="ZKhoZdGTQgAjR5LdTw5_-1" parent="ZKhoZdGTQgAjR5LdTw5_-0" />
        <mxCell id="v30g6BBwGWA7dHJzYP6r-4" style="edgeStyle=orthogonalEdgeStyle;rounded=0;orthogonalLoop=1;jettySize=auto;html=1;exitX=0.5;exitY=1;exitDx=0;exitDy=0;endArrow=none;endFill=0;dashed=1;startArrow=none;" edge="1" parent="ZKhoZdGTQgAjR5LdTw5_-1" source="v30g6BBwGWA7dHJzYP6r-7">
          <mxGeometry relative="1" as="geometry">
            <mxPoint x="120" y="440" as="targetPoint" />
          </mxGeometry>
        </mxCell>
        <mxCell id="v30g6BBwGWA7dHJzYP6r-1" value="Main Product Service" style="rounded=1;whiteSpace=wrap;html=1;fillColor=#dae8fc;strokeColor=#6c8ebf;" vertex="1" parent="ZKhoZdGTQgAjR5LdTw5_-1">
          <mxGeometry x="40" y="40" width="160" height="60" as="geometry" />
        </mxCell>
        <mxCell id="v30g6BBwGWA7dHJzYP6r-5" style="edgeStyle=orthogonalEdgeStyle;rounded=0;orthogonalLoop=1;jettySize=auto;html=1;exitX=0.5;exitY=1;exitDx=0;exitDy=0;dashed=1;endArrow=none;endFill=0;startArrow=none;" edge="1" parent="ZKhoZdGTQgAjR5LdTw5_-1" source="v30g6BBwGWA7dHJzYP6r-9">
          <mxGeometry relative="1" as="geometry">
            <mxPoint x="425" y="440" as="targetPoint" />
          </mxGeometry>
        </mxCell>
        <mxCell id="v30g6BBwGWA7dHJzYP6r-2" value="Multi EventBus" style="rounded=1;whiteSpace=wrap;html=1;fillColor=#dae8fc;strokeColor=#6c8ebf;" vertex="1" parent="ZKhoZdGTQgAjR5LdTw5_-1">
          <mxGeometry x="345" y="40" width="160" height="60" as="geometry" />
        </mxCell>
        <mxCell id="v30g6BBwGWA7dHJzYP6r-6" style="edgeStyle=orthogonalEdgeStyle;rounded=0;orthogonalLoop=1;jettySize=auto;html=1;exitX=0.5;exitY=1;exitDx=0;exitDy=0;dashed=1;endArrow=none;endFill=0;startArrow=none;" edge="1" parent="ZKhoZdGTQgAjR5LdTw5_-1" source="v30g6BBwGWA7dHJzYP6r-11">
          <mxGeometry relative="1" as="geometry">
            <mxPoint x="730" y="440" as="targetPoint" />
          </mxGeometry>
        </mxCell>
        <mxCell id="v30g6BBwGWA7dHJzYP6r-3" value="Actual EventBus" style="rounded=1;whiteSpace=wrap;html=1;fillColor=#dae8fc;strokeColor=#6c8ebf;" vertex="1" parent="ZKhoZdGTQgAjR5LdTw5_-1">
          <mxGeometry x="650" y="40" width="160" height="60" as="geometry" />
        </mxCell>
        <mxCell id="v30g6BBwGWA7dHJzYP6r-13" style="edgeStyle=none;rounded=0;orthogonalLoop=1;jettySize=auto;html=1;exitX=1;exitY=0.5;exitDx=0;exitDy=0;entryX=0;entryY=0.25;entryDx=0;entryDy=0;endArrow=classic;endFill=1;" edge="1" parent="ZKhoZdGTQgAjR5LdTw5_-1" source="v30g6BBwGWA7dHJzYP6r-7" target="v30g6BBwGWA7dHJzYP6r-9">
          <mxGeometry relative="1" as="geometry" />
        </mxCell>
        <mxCell id="v30g6BBwGWA7dHJzYP6r-17" value="Publish Event" style="edgeLabel;html=1;align=center;verticalAlign=middle;resizable=0;points=[];" vertex="1" connectable="0" parent="v30g6BBwGWA7dHJzYP6r-13">
          <mxGeometry x="-0.1245" y="1" relative="1" as="geometry">
            <mxPoint as="offset" />
          </mxGeometry>
        </mxCell>
        <mxCell id="v30g6BBwGWA7dHJzYP6r-7" value="" style="rounded=1;whiteSpace=wrap;html=1;fillColor=#f5f5f5;strokeColor=#666666;fontColor=#333333;" vertex="1" parent="ZKhoZdGTQgAjR5LdTw5_-1">
          <mxGeometry x="100" y="160" width="40" height="80" as="geometry" />
        </mxCell>
        <mxCell id="v30g6BBwGWA7dHJzYP6r-8" value="" style="edgeStyle=orthogonalEdgeStyle;rounded=0;orthogonalLoop=1;jettySize=auto;html=1;exitX=0.5;exitY=1;exitDx=0;exitDy=0;endArrow=none;endFill=0;dashed=1;" edge="1" parent="ZKhoZdGTQgAjR5LdTw5_-1" source="v30g6BBwGWA7dHJzYP6r-1" target="v30g6BBwGWA7dHJzYP6r-7">
          <mxGeometry relative="1" as="geometry">
            <mxPoint x="120" y="560" as="targetPoint" />
            <mxPoint x="120" y="100" as="sourcePoint" />
          </mxGeometry>
        </mxCell>
        <mxCell id="v30g6BBwGWA7dHJzYP6r-15" value="GetActualEventBus" style="edgeStyle=orthogonalEdgeStyle;rounded=0;orthogonalLoop=1;jettySize=auto;html=1;exitX=1;exitY=0.25;exitDx=0;exitDy=0;endArrow=classic;endFill=1;entryX=1;entryY=0.5;entryDx=0;entryDy=0;" edge="1" parent="ZKhoZdGTQgAjR5LdTw5_-1" source="v30g6BBwGWA7dHJzYP6r-9" target="v30g6BBwGWA7dHJzYP6r-9">
          <mxGeometry y="45" relative="1" as="geometry">
            <mxPoint x="490" y="200" as="targetPoint" />
            <mxPoint as="offset" />
          </mxGeometry>
        </mxCell>
        <mxCell id="v30g6BBwGWA7dHJzYP6r-16" value="PublishEvent" style="edgeStyle=orthogonalEdgeStyle;rounded=0;orthogonalLoop=1;jettySize=auto;html=1;exitX=1;exitY=0.75;exitDx=0;exitDy=0;entryX=0;entryY=0.25;entryDx=0;entryDy=0;endArrow=classic;endFill=1;" edge="1" parent="ZKhoZdGTQgAjR5LdTw5_-1" source="v30g6BBwGWA7dHJzYP6r-9" target="v30g6BBwGWA7dHJzYP6r-11">
          <mxGeometry relative="1" as="geometry" />
        </mxCell>
        <mxCell id="v30g6BBwGWA7dHJzYP6r-9" value="" style="rounded=1;whiteSpace=wrap;html=1;fillColor=#f5f5f5;strokeColor=#666666;fontColor=#333333;" vertex="1" parent="ZKhoZdGTQgAjR5LdTw5_-1">
          <mxGeometry x="405" y="160" width="40" height="160" as="geometry" />
        </mxCell>
        <mxCell id="v30g6BBwGWA7dHJzYP6r-10" value="" style="edgeStyle=orthogonalEdgeStyle;rounded=0;orthogonalLoop=1;jettySize=auto;html=1;exitX=0.5;exitY=1;exitDx=0;exitDy=0;dashed=1;endArrow=none;endFill=0;" edge="1" parent="ZKhoZdGTQgAjR5LdTw5_-1" source="v30g6BBwGWA7dHJzYP6r-2" target="v30g6BBwGWA7dHJzYP6r-9">
          <mxGeometry relative="1" as="geometry">
            <mxPoint x="425" y="560" as="targetPoint" />
            <mxPoint x="425" y="100" as="sourcePoint" />
          </mxGeometry>
        </mxCell>
        <mxCell id="v30g6BBwGWA7dHJzYP6r-11" value="" style="rounded=1;whiteSpace=wrap;html=1;fillColor=#f5f5f5;strokeColor=#666666;fontColor=#333333;" vertex="1" parent="ZKhoZdGTQgAjR5LdTw5_-1">
          <mxGeometry x="710" y="260" width="40" height="80" as="geometry" />
        </mxCell>
        <mxCell id="v30g6BBwGWA7dHJzYP6r-12" value="" style="edgeStyle=orthogonalEdgeStyle;rounded=0;orthogonalLoop=1;jettySize=auto;html=1;exitX=0.5;exitY=1;exitDx=0;exitDy=0;dashed=1;endArrow=none;endFill=0;" edge="1" parent="ZKhoZdGTQgAjR5LdTw5_-1" source="v30g6BBwGWA7dHJzYP6r-3" target="v30g6BBwGWA7dHJzYP6r-11">
          <mxGeometry relative="1" as="geometry">
            <mxPoint x="730" y="560" as="targetPoint" />
            <mxPoint x="730" y="100" as="sourcePoint" />
          </mxGeometry>
        </mxCell>
      </root>
    </mxGraphModel>
  </diagram>
  <diagram id="9BfI07cRLvcJap0rDQT9" name="event-isolation-flow">
    <mxGraphModel dx="1422" dy="804" grid="1" gridSize="10" guides="1" tooltips="1" connect="1" arrows="1" fold="1" page="1" pageScale="1" pageWidth="850" pageHeight="1100" math="0" shadow="0">
      <root>
        <mxCell id="VGXbNlcnMuc7YfTv5lQj-0" />
        <mxCell id="VGXbNlcnMuc7YfTv5lQj-1" parent="VGXbNlcnMuc7YfTv5lQj-0" />
        <mxCell id="VGXbNlcnMuc7YfTv5lQj-5" style="edgeStyle=orthogonalEdgeStyle;rounded=0;orthogonalLoop=1;jettySize=auto;html=1;exitX=0.5;exitY=1;exitDx=0;exitDy=0;endArrow=classic;endFill=1;" edge="1" parent="VGXbNlcnMuc7YfTv5lQj-1" source="VGXbNlcnMuc7YfTv5lQj-2" target="VGXbNlcnMuc7YfTv5lQj-4">
          <mxGeometry relative="1" as="geometry" />
        </mxCell>
        <mxCell id="VGXbNlcnMuc7YfTv5lQj-2" value="" style="ellipse;fillColor=#000000;strokeColor=none;" vertex="1" parent="VGXbNlcnMuc7YfTv5lQj-1">
          <mxGeometry x="390" y="40" width="30" height="30" as="geometry" />
        </mxCell>
        <mxCell id="VGXbNlcnMuc7YfTv5lQj-7" style="edgeStyle=orthogonalEdgeStyle;rounded=0;orthogonalLoop=1;jettySize=auto;html=1;exitX=0.5;exitY=1;exitDx=0;exitDy=0;entryX=0.5;entryY=0;entryDx=0;entryDy=0;endArrow=classic;endFill=1;" edge="1" parent="VGXbNlcnMuc7YfTv5lQj-1" target="VGXbNlcnMuc7YfTv5lQj-6">
          <mxGeometry relative="1" as="geometry">
            <mxPoint x="405" y="130" as="sourcePoint" />
            <Array as="points">
              <mxPoint x="405" y="140" />
              <mxPoint x="405" y="140" />
            </Array>
          </mxGeometry>
        </mxCell>
        <mxCell id="VGXbNlcnMuc7YfTv5lQj-4" value="PublishEvent" style="html=1;align=center;verticalAlign=top;rounded=1;absoluteArcSize=1;arcSize=10;dashed=0;" vertex="1" parent="VGXbNlcnMuc7YfTv5lQj-1">
          <mxGeometry x="335" y="130" width="140" height="40" as="geometry" />
        </mxCell>
        <mxCell id="VGXbNlcnMuc7YfTv5lQj-9" style="edgeStyle=orthogonalEdgeStyle;rounded=0;orthogonalLoop=1;jettySize=auto;html=1;exitX=0.5;exitY=1;exitDx=0;exitDy=0;entryX=0.5;entryY=0;entryDx=0;entryDy=0;endArrow=classic;endFill=1;" edge="1" parent="VGXbNlcnMuc7YfTv5lQj-1" source="VGXbNlcnMuc7YfTv5lQj-6" target="VGXbNlcnMuc7YfTv5lQj-8">
          <mxGeometry relative="1" as="geometry" />
        </mxCell>
        <mxCell id="VGXbNlcnMuc7YfTv5lQj-6" value="&lt;div&gt;Get customisation for&lt;/div&gt;&lt;div&gt;tenant and event&lt;br&gt;&lt;/div&gt;" style="html=1;align=center;verticalAlign=top;rounded=1;absoluteArcSize=1;arcSize=10;dashed=0;" vertex="1" parent="VGXbNlcnMuc7YfTv5lQj-1">
          <mxGeometry x="335" y="220" width="140" height="40" as="geometry" />
        </mxCell>
        <mxCell id="VGXbNlcnMuc7YfTv5lQj-11" style="edgeStyle=orthogonalEdgeStyle;rounded=0;orthogonalLoop=1;jettySize=auto;html=1;exitX=0;exitY=0.5;exitDx=0;exitDy=0;entryX=1;entryY=0.5;entryDx=0;entryDy=0;endArrow=classic;endFill=1;" edge="1" parent="VGXbNlcnMuc7YfTv5lQj-1" source="VGXbNlcnMuc7YfTv5lQj-8" target="VGXbNlcnMuc7YfTv5lQj-10">
          <mxGeometry relative="1" as="geometry" />
        </mxCell>
        <mxCell id="VGXbNlcnMuc7YfTv5lQj-13" style="edgeStyle=orthogonalEdgeStyle;rounded=0;orthogonalLoop=1;jettySize=auto;html=1;exitX=1;exitY=0.5;exitDx=0;exitDy=0;entryX=0;entryY=0.5;entryDx=0;entryDy=0;endArrow=classic;endFill=1;" edge="1" parent="VGXbNlcnMuc7YfTv5lQj-1" source="VGXbNlcnMuc7YfTv5lQj-8" target="VGXbNlcnMuc7YfTv5lQj-12">
          <mxGeometry relative="1" as="geometry" />
        </mxCell>
        <mxCell id="VGXbNlcnMuc7YfTv5lQj-8" value="" style="rhombus;" vertex="1" parent="VGXbNlcnMuc7YfTv5lQj-1">
          <mxGeometry x="390" y="315" width="30" height="30" as="geometry" />
        </mxCell>
        <mxCell id="VGXbNlcnMuc7YfTv5lQj-15" style="edgeStyle=orthogonalEdgeStyle;rounded=0;orthogonalLoop=1;jettySize=auto;html=1;exitX=0.5;exitY=1;exitDx=0;exitDy=0;endArrow=classic;endFill=1;" edge="1" parent="VGXbNlcnMuc7YfTv5lQj-1" source="VGXbNlcnMuc7YfTv5lQj-10" target="VGXbNlcnMuc7YfTv5lQj-14">
          <mxGeometry relative="1" as="geometry" />
        </mxCell>
        <mxCell id="VGXbNlcnMuc7YfTv5lQj-10" value="No customisation" style="html=1;align=center;verticalAlign=top;rounded=1;absoluteArcSize=1;arcSize=10;dashed=0;" vertex="1" parent="VGXbNlcnMuc7YfTv5lQj-1">
          <mxGeometry x="180" y="310" width="140" height="40" as="geometry" />
        </mxCell>
        <mxCell id="VGXbNlcnMuc7YfTv5lQj-17" style="edgeStyle=orthogonalEdgeStyle;rounded=0;orthogonalLoop=1;jettySize=auto;html=1;exitX=0.5;exitY=1;exitDx=0;exitDy=0;endArrow=classic;endFill=1;" edge="1" parent="VGXbNlcnMuc7YfTv5lQj-1" source="VGXbNlcnMuc7YfTv5lQj-12" target="VGXbNlcnMuc7YfTv5lQj-16">
          <mxGeometry relative="1" as="geometry" />
        </mxCell>
        <mxCell id="VGXbNlcnMuc7YfTv5lQj-12" value="Event is customised" style="html=1;align=center;verticalAlign=top;rounded=1;absoluteArcSize=1;arcSize=10;dashed=0;" vertex="1" parent="VGXbNlcnMuc7YfTv5lQj-1">
          <mxGeometry x="490" y="310" width="140" height="40" as="geometry" />
        </mxCell>
        <mxCell id="VGXbNlcnMuc7YfTv5lQj-19" style="edgeStyle=orthogonalEdgeStyle;rounded=0;orthogonalLoop=1;jettySize=auto;html=1;exitX=0.5;exitY=1;exitDx=0;exitDy=0;endArrow=classic;endFill=1;" edge="1" parent="VGXbNlcnMuc7YfTv5lQj-1" source="VGXbNlcnMuc7YfTv5lQj-14" target="VGXbNlcnMuc7YfTv5lQj-18">
          <mxGeometry relative="1" as="geometry" />
        </mxCell>
        <mxCell id="VGXbNlcnMuc7YfTv5lQj-14" value="&lt;div&gt;Use Publish in the event&lt;/div&gt;&lt;div&gt;bus for the application&lt;br&gt;&lt;/div&gt;" style="html=1;align=center;verticalAlign=top;rounded=1;absoluteArcSize=1;arcSize=10;dashed=0;" vertex="1" parent="VGXbNlcnMuc7YfTv5lQj-1">
          <mxGeometry x="180" y="410" width="140" height="40" as="geometry" />
        </mxCell>
        <mxCell id="VGXbNlcnMuc7YfTv5lQj-20" style="edgeStyle=orthogonalEdgeStyle;rounded=0;orthogonalLoop=1;jettySize=auto;html=1;exitX=0.5;exitY=1;exitDx=0;exitDy=0;entryX=0.5;entryY=0;entryDx=0;entryDy=0;endArrow=classic;endFill=1;" edge="1" parent="VGXbNlcnMuc7YfTv5lQj-1" source="VGXbNlcnMuc7YfTv5lQj-16" target="VGXbNlcnMuc7YfTv5lQj-18">
          <mxGeometry relative="1" as="geometry" />
        </mxCell>
        <mxCell id="VGXbNlcnMuc7YfTv5lQj-16" value="Send event to tenant" style="html=1;align=center;verticalAlign=top;rounded=1;absoluteArcSize=1;arcSize=10;dashed=0;" vertex="1" parent="VGXbNlcnMuc7YfTv5lQj-1">
          <mxGeometry x="490" y="410" width="140" height="40" as="geometry" />
        </mxCell>
        <mxCell id="VGXbNlcnMuc7YfTv5lQj-18" value="" style="ellipse;html=1;shape=endState;fillColor=#000000;strokeColor=#000000;" vertex="1" parent="VGXbNlcnMuc7YfTv5lQj-1">
          <mxGeometry x="390" y="520" width="30" height="30" as="geometry" />
        </mxCell>
      </root>
    </mxGraphModel>
  </diagram>
  <diagram id="WFxbnLNXYL747ng2xSGZ" name="event-capturing">
    <mxGraphModel dx="1422" dy="804" grid="1" gridSize="10" guides="1" tooltips="1" connect="1" arrows="1" fold="1" page="1" pageScale="1" pageWidth="850" pageHeight="1100" math="0" shadow="0">
      <root>
        <mxCell id="3F9diJp6vDTAYm88iWbP-0" />
        <mxCell id="3F9diJp6vDTAYm88iWbP-1" parent="3F9diJp6vDTAYm88iWbP-0" />
        <mxCell id="y7diWMJF8snA52y2mL2K-0" style="edgeStyle=orthogonalEdgeStyle;rounded=0;orthogonalLoop=1;jettySize=auto;html=1;exitX=0.5;exitY=1;exitDx=0;exitDy=0;endArrow=none;endFill=0;dashed=1;startArrow=none;" edge="1" parent="3F9diJp6vDTAYm88iWbP-1" source="y7diWMJF8snA52y2mL2K-8">
          <mxGeometry relative="1" as="geometry">
            <mxPoint x="120" y="600" as="targetPoint" />
          </mxGeometry>
        </mxCell>
        <mxCell id="y7diWMJF8snA52y2mL2K-1" value="Main Product Service" style="rounded=1;whiteSpace=wrap;html=1;fillColor=#dae8fc;strokeColor=#6c8ebf;" vertex="1" parent="3F9diJp6vDTAYm88iWbP-1">
          <mxGeometry x="40" y="40" width="160" height="60" as="geometry" />
        </mxCell>
        <mxCell id="y7diWMJF8snA52y2mL2K-2" style="edgeStyle=orthogonalEdgeStyle;rounded=0;orthogonalLoop=1;jettySize=auto;html=1;exitX=0.5;exitY=1;exitDx=0;exitDy=0;dashed=1;endArrow=none;endFill=0;startArrow=none;" edge="1" parent="3F9diJp6vDTAYm88iWbP-1" source="y7diWMJF8snA52y2mL2K-12">
          <mxGeometry relative="1" as="geometry">
            <mxPoint x="320" y="600" as="targetPoint" />
          </mxGeometry>
        </mxCell>
        <mxCell id="y7diWMJF8snA52y2mL2K-3" value="Multi EventBus" style="rounded=1;whiteSpace=wrap;html=1;fillColor=#dae8fc;strokeColor=#6c8ebf;" vertex="1" parent="3F9diJp6vDTAYm88iWbP-1">
          <mxGeometry x="240" y="40" width="160" height="60" as="geometry" />
        </mxCell>
        <mxCell id="y7diWMJF8snA52y2mL2K-4" style="edgeStyle=orthogonalEdgeStyle;rounded=0;orthogonalLoop=1;jettySize=auto;html=1;exitX=0.5;exitY=1;exitDx=0;exitDy=0;dashed=1;endArrow=none;endFill=0;startArrow=none;" edge="1" parent="3F9diJp6vDTAYm88iWbP-1" source="y7diWMJF8snA52y2mL2K-14">
          <mxGeometry relative="1" as="geometry">
            <mxPoint x="520" y="600" as="targetPoint" />
          </mxGeometry>
        </mxCell>
        <mxCell id="y7diWMJF8snA52y2mL2K-5" value="Tenant Manager" style="rounded=1;whiteSpace=wrap;html=1;fillColor=#dae8fc;strokeColor=#6c8ebf;" vertex="1" parent="3F9diJp6vDTAYm88iWbP-1">
          <mxGeometry x="440" y="40" width="160" height="60" as="geometry" />
        </mxCell>
        <mxCell id="y7diWMJF8snA52y2mL2K-6" style="edgeStyle=none;rounded=0;orthogonalLoop=1;jettySize=auto;html=1;exitX=1;exitY=0.25;exitDx=0;exitDy=0;entryX=0.025;entryY=0.103;entryDx=0;entryDy=0;endArrow=classic;endFill=1;entryPerimeter=0;" edge="1" parent="3F9diJp6vDTAYm88iWbP-1" source="y7diWMJF8snA52y2mL2K-8" target="y7diWMJF8snA52y2mL2K-12">
          <mxGeometry relative="1" as="geometry" />
        </mxCell>
        <mxCell id="y7diWMJF8snA52y2mL2K-7" value="Publish Event" style="edgeLabel;html=1;align=center;verticalAlign=middle;resizable=0;points=[];" vertex="1" connectable="0" parent="y7diWMJF8snA52y2mL2K-6">
          <mxGeometry x="-0.1245" y="1" relative="1" as="geometry">
            <mxPoint y="-9" as="offset" />
          </mxGeometry>
        </mxCell>
        <mxCell id="y7diWMJF8snA52y2mL2K-8" value="" style="rounded=1;whiteSpace=wrap;html=1;fillColor=#f5f5f5;strokeColor=#666666;fontColor=#333333;" vertex="1" parent="3F9diJp6vDTAYm88iWbP-1">
          <mxGeometry x="100" y="180" width="40" height="80" as="geometry" />
        </mxCell>
        <mxCell id="y7diWMJF8snA52y2mL2K-9" value="" style="edgeStyle=orthogonalEdgeStyle;rounded=0;orthogonalLoop=1;jettySize=auto;html=1;exitX=0.5;exitY=1;exitDx=0;exitDy=0;endArrow=none;endFill=0;dashed=1;" edge="1" parent="3F9diJp6vDTAYm88iWbP-1" source="y7diWMJF8snA52y2mL2K-1" target="y7diWMJF8snA52y2mL2K-8">
          <mxGeometry relative="1" as="geometry">
            <mxPoint x="120" y="560" as="targetPoint" />
            <mxPoint x="120" y="100" as="sourcePoint" />
          </mxGeometry>
        </mxCell>
        <mxCell id="y7diWMJF8snA52y2mL2K-19" style="edgeStyle=orthogonalEdgeStyle;rounded=0;orthogonalLoop=1;jettySize=auto;html=1;exitX=1.005;exitY=0.103;exitDx=0;exitDy=0;entryX=0;entryY=0.25;entryDx=0;entryDy=0;endArrow=classic;endFill=1;exitPerimeter=0;" edge="1" parent="3F9diJp6vDTAYm88iWbP-1" source="y7diWMJF8snA52y2mL2K-12" target="y7diWMJF8snA52y2mL2K-14">
          <mxGeometry relative="1" as="geometry" />
        </mxCell>
        <mxCell id="y7diWMJF8snA52y2mL2K-21" value="Get Customisation" style="edgeLabel;html=1;align=center;verticalAlign=middle;resizable=0;points=[];" vertex="1" connectable="0" parent="y7diWMJF8snA52y2mL2K-19">
          <mxGeometry x="-0.2625" y="1" relative="1" as="geometry">
            <mxPoint x="21" y="-9" as="offset" />
          </mxGeometry>
        </mxCell>
        <mxCell id="y7diWMJF8snA52y2mL2K-34" value="Send Event To Tenant" style="edgeStyle=orthogonalEdgeStyle;rounded=0;orthogonalLoop=1;jettySize=auto;html=1;exitX=1.006;exitY=0.666;exitDx=0;exitDy=0;entryX=0;entryY=0.75;entryDx=0;entryDy=0;endArrow=classic;endFill=1;exitPerimeter=0;" edge="1" parent="3F9diJp6vDTAYm88iWbP-1" source="y7diWMJF8snA52y2mL2K-12" target="y7diWMJF8snA52y2mL2K-29">
          <mxGeometry x="0.0451" y="10" relative="1" as="geometry">
            <mxPoint as="offset" />
          </mxGeometry>
        </mxCell>
        <mxCell id="y7diWMJF8snA52y2mL2K-12" value="" style="rounded=1;whiteSpace=wrap;html=1;fillColor=#f5f5f5;strokeColor=#666666;fontColor=#333333;" vertex="1" parent="3F9diJp6vDTAYm88iWbP-1">
          <mxGeometry x="300" y="160" width="40" height="390" as="geometry" />
        </mxCell>
        <mxCell id="y7diWMJF8snA52y2mL2K-13" value="" style="edgeStyle=orthogonalEdgeStyle;rounded=0;orthogonalLoop=1;jettySize=auto;html=1;exitX=0.5;exitY=1;exitDx=0;exitDy=0;dashed=1;endArrow=none;endFill=0;" edge="1" parent="3F9diJp6vDTAYm88iWbP-1" source="y7diWMJF8snA52y2mL2K-3" target="y7diWMJF8snA52y2mL2K-12">
          <mxGeometry relative="1" as="geometry">
            <mxPoint x="320" y="560" as="targetPoint" />
            <mxPoint x="320" y="100" as="sourcePoint" />
          </mxGeometry>
        </mxCell>
        <mxCell id="y7diWMJF8snA52y2mL2K-20" style="edgeStyle=orthogonalEdgeStyle;rounded=0;orthogonalLoop=1;jettySize=auto;html=1;exitX=0;exitY=0.75;exitDx=0;exitDy=0;endArrow=classic;endFill=1;dashed=1;entryX=1.003;entryY=0.206;entryDx=0;entryDy=0;entryPerimeter=0;" edge="1" parent="3F9diJp6vDTAYm88iWbP-1" source="y7diWMJF8snA52y2mL2K-14" target="y7diWMJF8snA52y2mL2K-12">
          <mxGeometry relative="1" as="geometry">
            <mxPoint x="344" y="240" as="targetPoint" />
          </mxGeometry>
        </mxCell>
        <mxCell id="y7diWMJF8snA52y2mL2K-22" value="return customisation info" style="edgeLabel;html=1;align=center;verticalAlign=middle;resizable=0;points=[];" vertex="1" connectable="0" parent="y7diWMJF8snA52y2mL2K-20">
          <mxGeometry x="0.3375" y="2" relative="1" as="geometry">
            <mxPoint x="32" y="8" as="offset" />
          </mxGeometry>
        </mxCell>
        <mxCell id="y7diWMJF8snA52y2mL2K-14" value="" style="rounded=1;whiteSpace=wrap;html=1;fillColor=#f5f5f5;strokeColor=#666666;fontColor=#333333;" vertex="1" parent="3F9diJp6vDTAYm88iWbP-1">
          <mxGeometry x="500" y="180" width="40" height="80" as="geometry" />
        </mxCell>
        <mxCell id="y7diWMJF8snA52y2mL2K-15" value="" style="edgeStyle=orthogonalEdgeStyle;rounded=0;orthogonalLoop=1;jettySize=auto;html=1;exitX=0.5;exitY=1;exitDx=0;exitDy=0;dashed=1;endArrow=none;endFill=0;" edge="1" parent="3F9diJp6vDTAYm88iWbP-1" source="y7diWMJF8snA52y2mL2K-5" target="y7diWMJF8snA52y2mL2K-14">
          <mxGeometry relative="1" as="geometry">
            <mxPoint x="520" y="560" as="targetPoint" />
            <mxPoint x="520" y="100" as="sourcePoint" />
          </mxGeometry>
        </mxCell>
        <mxCell id="y7diWMJF8snA52y2mL2K-17" value="Custom Tenant Service" style="rounded=1;whiteSpace=wrap;html=1;fillColor=#dae8fc;strokeColor=#6c8ebf;" vertex="1" parent="3F9diJp6vDTAYm88iWbP-1">
          <mxGeometry x="720" y="40" width="160" height="60" as="geometry" />
        </mxCell>
        <mxCell id="y7diWMJF8snA52y2mL2K-18" value="" style="edgeStyle=orthogonalEdgeStyle;rounded=0;orthogonalLoop=1;jettySize=auto;html=1;exitX=0.5;exitY=1;exitDx=0;exitDy=0;dashed=1;endArrow=none;endFill=0;" edge="1" parent="3F9diJp6vDTAYm88iWbP-1">
          <mxGeometry relative="1" as="geometry">
            <mxPoint x="800" y="600" as="targetPoint" />
            <mxPoint x="799.5" y="100" as="sourcePoint" />
            <Array as="points">
              <mxPoint x="800" y="230" />
              <mxPoint x="800" y="230" />
            </Array>
          </mxGeometry>
        </mxCell>
        <mxCell id="y7diWMJF8snA52y2mL2K-23" value="" style="html=1;points=[];perimeter=orthogonalPerimeter;fillColor=#000000;strokeColor=none;" vertex="1" parent="3F9diJp6vDTAYm88iWbP-1">
          <mxGeometry x="660" y="40" width="5" height="560" as="geometry" />
        </mxCell>
        <mxCell id="y7diWMJF8snA52y2mL2K-28" value="Invoke Handler" style="edgeStyle=orthogonalEdgeStyle;rounded=0;orthogonalLoop=1;jettySize=auto;html=1;exitX=1.021;exitY=0.825;exitDx=0;exitDy=0;entryX=1;entryY=0.932;entryDx=0;entryDy=0;endArrow=classic;endFill=1;entryPerimeter=0;exitPerimeter=0;" edge="1" parent="3F9diJp6vDTAYm88iWbP-1" source="y7diWMJF8snA52y2mL2K-12" target="y7diWMJF8snA52y2mL2K-12">
          <mxGeometry x="-0.0764" y="40" relative="1" as="geometry">
            <mxPoint as="offset" />
          </mxGeometry>
        </mxCell>
        <mxCell id="y7diWMJF8snA52y2mL2K-29" value="" style="rounded=1;whiteSpace=wrap;html=1;fillColor=#f5f5f5;strokeColor=#666666;fontColor=#333333;" vertex="1" parent="3F9diJp6vDTAYm88iWbP-1">
          <mxGeometry x="780" y="360" width="40" height="80" as="geometry" />
        </mxCell>
        <mxCell id="y7diWMJF8snA52y2mL2K-30" value="Save Event" style="edgeStyle=orthogonalEdgeStyle;rounded=0;orthogonalLoop=1;jettySize=auto;html=1;exitX=1;exitY=0.5;exitDx=0;exitDy=0;entryX=1;entryY=0.75;entryDx=0;entryDy=0;endArrow=classic;endFill=1;" edge="1" parent="3F9diJp6vDTAYm88iWbP-1" source="y7diWMJF8snA52y2mL2K-29" target="y7diWMJF8snA52y2mL2K-29">
          <mxGeometry y="30" relative="1" as="geometry">
            <Array as="points">
              <mxPoint x="820" y="390" />
              <mxPoint x="840" y="390" />
              <mxPoint x="840" y="420" />
            </Array>
            <mxPoint as="offset" />
          </mxGeometry>
        </mxCell>
        <mxCell id="y7diWMJF8snA52y2mL2K-31" value="" style="endArrow=none;dashed=1;html=1;exitX=0.001;exitY=0.587;exitDx=0;exitDy=0;exitPerimeter=0;entryX=1;entryY=0.591;entryDx=0;entryDy=0;entryPerimeter=0;" edge="1" parent="3F9diJp6vDTAYm88iWbP-1" source="y7diWMJF8snA52y2mL2K-25" target="y7diWMJF8snA52y2mL2K-25">
          <mxGeometry width="50" height="50" relative="1" as="geometry">
            <mxPoint x="269.38999999999993" y="460.0000000000001" as="sourcePoint" />
            <mxPoint x="880" y="460" as="targetPoint" />
          </mxGeometry>
        </mxCell>
        <mxCell id="y7diWMJF8snA52y2mL2K-32" value="Else" style="text;html=1;strokeColor=none;fillColor=none;align=center;verticalAlign=middle;whiteSpace=wrap;rounded=0;" vertex="1" parent="3F9diJp6vDTAYm88iWbP-1">
          <mxGeometry x="250" y="470" width="40" height="20" as="geometry" />
        </mxCell>
        <mxCell id="y7diWMJF8snA52y2mL2K-33" value="If event is customised" style="text;html=1;strokeColor=none;fillColor=none;align=center;verticalAlign=middle;whiteSpace=wrap;rounded=0;" vertex="1" parent="3F9diJp6vDTAYm88iWbP-1">
          <mxGeometry x="250" y="380" width="120" height="20" as="geometry" />
        </mxCell>
        <mxCell id="y7diWMJF8snA52y2mL2K-25" value="Alternative" style="shape=umlFrame;whiteSpace=wrap;html=1;width=120;height=30;boundedLbl=1;verticalAlign=middle;align=left;spacingLeft=5;" vertex="1" parent="3F9diJp6vDTAYm88iWbP-1">
          <mxGeometry x="240" y="330" width="670" height="220" as="geometry" />
        </mxCell>
        <mxCell id="y7diWMJF8snA52y2mL2K-35" value="Main Product" style="text;html=1;strokeColor=none;fillColor=none;align=center;verticalAlign=middle;whiteSpace=wrap;rounded=0;" vertex="1" parent="3F9diJp6vDTAYm88iWbP-1">
          <mxGeometry x="555" y="570" width="75" height="20" as="geometry" />
        </mxCell>
        <mxCell id="y7diWMJF8snA52y2mL2K-36" value="Tenant specific" style="text;html=1;strokeColor=none;fillColor=none;align=center;verticalAlign=middle;whiteSpace=wrap;rounded=0;" vertex="1" parent="3F9diJp6vDTAYm88iWbP-1">
          <mxGeometry x="680" y="570" width="90" height="20" as="geometry" />
        </mxCell>
      </root>
    </mxGraphModel>
  </diagram>
  <diagram id="3iaqUjOHe4iEAS2JWLjS" name="general-architecture">
    <mxGraphModel dx="1422" dy="804" grid="1" gridSize="10" guides="1" tooltips="1" connect="1" arrows="1" fold="1" page="1" pageScale="1" pageWidth="850" pageHeight="1100" math="0" shadow="0">
      <root>
        <mxCell id="DrSMN-_oZdkLJueHKXu8-0" />
        <mxCell id="DrSMN-_oZdkLJueHKXu8-1" parent="DrSMN-_oZdkLJueHKXu8-0" />
        <mxCell id="DrSMN-_oZdkLJueHKXu8-26" value="Tenant Specific Microservices" style="rounded=1;whiteSpace=wrap;html=1;dashed=1;align=center;verticalAlign=top;arcSize=4;spacing=2;" vertex="1" parent="DrSMN-_oZdkLJueHKXu8-1">
          <mxGeometry x="340" y="560" width="290" height="160" as="geometry" />
        </mxCell>
        <mxCell id="DrSMN-_oZdkLJueHKXu8-25" value="&lt;div&gt;Main Application&lt;br&gt;&lt;/div&gt;" style="rounded=1;whiteSpace=wrap;html=1;align=left;arcSize=2;verticalAlign=top;spacing=14;dashed=1;" vertex="1" parent="DrSMN-_oZdkLJueHKXu8-1">
          <mxGeometry x="10" y="10" width="790" height="520" as="geometry" />
        </mxCell>
        <mxCell id="DrSMN-_oZdkLJueHKXu8-2" value="Gateways" style="rounded=1;whiteSpace=wrap;html=1;verticalAlign=top;" vertex="1" parent="DrSMN-_oZdkLJueHKXu8-1">
          <mxGeometry x="80" y="130" width="160" height="310" as="geometry" />
        </mxCell>
        <mxCell id="DrSMN-_oZdkLJueHKXu8-15" style="edgeStyle=orthogonalEdgeStyle;rounded=0;orthogonalLoop=1;jettySize=auto;html=1;exitX=1.171;exitY=0.156;exitDx=0;exitDy=0;endArrow=classic;endFill=1;exitPerimeter=0;entryX=0;entryY=0.5;entryDx=0;entryDy=0;" edge="1" parent="DrSMN-_oZdkLJueHKXu8-1" source="DrSMN-_oZdkLJueHKXu8-11" target="DrSMN-_oZdkLJueHKXu8-4">
          <mxGeometry relative="1" as="geometry">
            <mxPoint x="350" y="160" as="targetPoint" />
          </mxGeometry>
        </mxCell>
        <mxCell id="DrSMN-_oZdkLJueHKXu8-19" style="edgeStyle=orthogonalEdgeStyle;rounded=0;orthogonalLoop=1;jettySize=auto;html=1;exitX=1;exitY=0.5;exitDx=0;exitDy=0;entryX=0;entryY=0.127;entryDx=0;entryDy=0;entryPerimeter=0;endArrow=classic;endFill=1;startArrow=classic;startFill=1;" edge="1" parent="DrSMN-_oZdkLJueHKXu8-1" source="DrSMN-_oZdkLJueHKXu8-4" target="DrSMN-_oZdkLJueHKXu8-18">
          <mxGeometry relative="1" as="geometry" />
        </mxCell>
        <mxCell id="DrSMN-_oZdkLJueHKXu8-4" value="Service A" style="rounded=1;whiteSpace=wrap;html=1;verticalAlign=top;" vertex="1" parent="DrSMN-_oZdkLJueHKXu8-1">
          <mxGeometry x="380" y="160" width="200" height="80" as="geometry" />
        </mxCell>
        <mxCell id="DrSMN-_oZdkLJueHKXu8-20" style="edgeStyle=orthogonalEdgeStyle;rounded=0;orthogonalLoop=1;jettySize=auto;html=1;exitX=1;exitY=0.5;exitDx=0;exitDy=0;entryX=0;entryY=0.5;entryDx=0;entryDy=0;endArrow=classic;endFill=1;startArrow=classic;startFill=1;" edge="1" parent="DrSMN-_oZdkLJueHKXu8-1" source="DrSMN-_oZdkLJueHKXu8-5" target="DrSMN-_oZdkLJueHKXu8-18">
          <mxGeometry relative="1" as="geometry" />
        </mxCell>
        <mxCell id="DrSMN-_oZdkLJueHKXu8-5" value="Service B" style="rounded=1;whiteSpace=wrap;html=1;verticalAlign=top;" vertex="1" parent="DrSMN-_oZdkLJueHKXu8-1">
          <mxGeometry x="380" y="280" width="200" height="80" as="geometry" />
        </mxCell>
        <mxCell id="DrSMN-_oZdkLJueHKXu8-8" value="Tenant Manager" style="rounded=1;whiteSpace=wrap;html=1;verticalAlign=top;" vertex="1" parent="DrSMN-_oZdkLJueHKXu8-1">
          <mxGeometry x="380" y="40" width="200" height="80" as="geometry" />
        </mxCell>
        <mxCell id="DrSMN-_oZdkLJueHKXu8-12" style="edgeStyle=orthogonalEdgeStyle;rounded=0;orthogonalLoop=1;jettySize=auto;html=1;exitX=1;exitY=0.5;exitDx=0;exitDy=0;endArrow=classic;endFill=1;entryX=0.2;entryY=0.156;entryDx=0;entryDy=0;entryPerimeter=0;" edge="1" parent="DrSMN-_oZdkLJueHKXu8-1" source="DrSMN-_oZdkLJueHKXu8-9" target="DrSMN-_oZdkLJueHKXu8-11">
          <mxGeometry relative="1" as="geometry">
            <mxPoint x="309" y="210" as="targetPoint" />
          </mxGeometry>
        </mxCell>
        <mxCell id="DrSMN-_oZdkLJueHKXu8-9" value="Mobile" style="rhombus;whiteSpace=wrap;html=1;labelPosition=center;verticalLabelPosition=top;align=center;verticalAlign=bottom;" vertex="1" parent="DrSMN-_oZdkLJueHKXu8-1">
          <mxGeometry x="140" y="180" width="40" height="40" as="geometry" />
        </mxCell>
        <mxCell id="DrSMN-_oZdkLJueHKXu8-13" style="edgeStyle=orthogonalEdgeStyle;rounded=0;orthogonalLoop=1;jettySize=auto;html=1;exitX=1;exitY=0.5;exitDx=0;exitDy=0;entryX=-0.133;entryY=0.53;entryDx=0;entryDy=0;entryPerimeter=0;endArrow=classic;endFill=1;" edge="1" parent="DrSMN-_oZdkLJueHKXu8-1" source="DrSMN-_oZdkLJueHKXu8-10" target="DrSMN-_oZdkLJueHKXu8-11">
          <mxGeometry relative="1" as="geometry" />
        </mxCell>
        <mxCell id="DrSMN-_oZdkLJueHKXu8-10" value="Web" style="rhombus;whiteSpace=wrap;html=1;labelPosition=center;verticalLabelPosition=top;align=center;verticalAlign=bottom;" vertex="1" parent="DrSMN-_oZdkLJueHKXu8-1">
          <mxGeometry x="140" y="300" width="40" height="40" as="geometry" />
        </mxCell>
        <mxCell id="DrSMN-_oZdkLJueHKXu8-11" value="" style="html=1;points=[];perimeter=orthogonalPerimeter;fillColor=#000000;strokeColor=none;" vertex="1" parent="DrSMN-_oZdkLJueHKXu8-1">
          <mxGeometry x="310" y="150" width="5" height="320" as="geometry" />
        </mxCell>
        <mxCell id="DrSMN-_oZdkLJueHKXu8-21" style="edgeStyle=orthogonalEdgeStyle;rounded=0;orthogonalLoop=1;jettySize=auto;html=1;exitX=1;exitY=0.5;exitDx=0;exitDy=0;entryX=0.017;entryY=0.875;entryDx=0;entryDy=0;entryPerimeter=0;endArrow=classic;endFill=1;startArrow=classic;startFill=1;" edge="1" parent="DrSMN-_oZdkLJueHKXu8-1" source="DrSMN-_oZdkLJueHKXu8-14" target="DrSMN-_oZdkLJueHKXu8-18">
          <mxGeometry relative="1" as="geometry" />
        </mxCell>
        <mxCell id="DrSMN-_oZdkLJueHKXu8-14" value="Service B" style="rounded=1;whiteSpace=wrap;html=1;verticalAlign=top;" vertex="1" parent="DrSMN-_oZdkLJueHKXu8-1">
          <mxGeometry x="380" y="400" width="200" height="80" as="geometry" />
        </mxCell>
        <mxCell id="DrSMN-_oZdkLJueHKXu8-16" style="edgeStyle=orthogonalEdgeStyle;rounded=0;orthogonalLoop=1;jettySize=auto;html=1;exitX=0.886;exitY=0.532;exitDx=0;exitDy=0;endArrow=classic;endFill=1;exitPerimeter=0;entryX=0;entryY=0.5;entryDx=0;entryDy=0;" edge="1" parent="DrSMN-_oZdkLJueHKXu8-1" source="DrSMN-_oZdkLJueHKXu8-11" target="DrSMN-_oZdkLJueHKXu8-5">
          <mxGeometry relative="1" as="geometry">
            <mxPoint x="390" y="210" as="targetPoint" />
            <mxPoint x="329.1650000000002" y="209.27999999999997" as="sourcePoint" />
          </mxGeometry>
        </mxCell>
        <mxCell id="DrSMN-_oZdkLJueHKXu8-17" style="edgeStyle=orthogonalEdgeStyle;rounded=0;orthogonalLoop=1;jettySize=auto;html=1;exitX=1.171;exitY=0.904;exitDx=0;exitDy=0;endArrow=classic;endFill=1;exitPerimeter=0;entryX=0;entryY=0.5;entryDx=0;entryDy=0;" edge="1" parent="DrSMN-_oZdkLJueHKXu8-1" source="DrSMN-_oZdkLJueHKXu8-11" target="DrSMN-_oZdkLJueHKXu8-14">
          <mxGeometry relative="1" as="geometry">
            <mxPoint x="400" y="220" as="targetPoint" />
            <mxPoint x="339.1650000000002" y="219.27999999999997" as="sourcePoint" />
          </mxGeometry>
        </mxCell>
        <mxCell id="DrSMN-_oZdkLJueHKXu8-18" value="Event Bus" style="rounded=1;whiteSpace=wrap;html=1;horizontal=0;verticalAlign=bottom;align=center;" vertex="1" parent="DrSMN-_oZdkLJueHKXu8-1">
          <mxGeometry x="660" y="160" width="60" height="320" as="geometry" />
        </mxCell>
        <mxCell id="DrSMN-_oZdkLJueHKXu8-22" style="edgeStyle=orthogonalEdgeStyle;rounded=0;orthogonalLoop=1;jettySize=auto;html=1;endArrow=classic;endFill=1;" edge="1" parent="DrSMN-_oZdkLJueHKXu8-1" target="DrSMN-_oZdkLJueHKXu8-9">
          <mxGeometry relative="1" as="geometry">
            <mxPoint x="74.13999999999999" y="210" as="targetPoint" />
            <mxPoint x="10" y="200" as="sourcePoint" />
            <Array as="points">
              <mxPoint x="10" y="200" />
            </Array>
          </mxGeometry>
        </mxCell>
        <mxCell id="DrSMN-_oZdkLJueHKXu8-23" style="edgeStyle=orthogonalEdgeStyle;rounded=0;orthogonalLoop=1;jettySize=auto;html=1;endArrow=classic;endFill=1;" edge="1" parent="DrSMN-_oZdkLJueHKXu8-1">
          <mxGeometry relative="1" as="geometry">
            <mxPoint x="140" y="319.58" as="targetPoint" />
            <mxPoint x="10" y="319.58" as="sourcePoint" />
            <Array as="points">
              <mxPoint x="10" y="319.58" />
            </Array>
          </mxGeometry>
        </mxCell>
        <mxCell id="DrSMN-_oZdkLJueHKXu8-27" style="edgeStyle=orthogonalEdgeStyle;rounded=0;orthogonalLoop=1;jettySize=auto;html=1;exitX=1;exitY=0.5;exitDx=0;exitDy=0;startArrow=classic;startFill=1;endArrow=classic;endFill=1;" edge="1" parent="DrSMN-_oZdkLJueHKXu8-1" source="DrSMN-_oZdkLJueHKXu8-24" target="DrSMN-_oZdkLJueHKXu8-18">
          <mxGeometry relative="1" as="geometry" />
        </mxCell>
        <mxCell id="DrSMN-_oZdkLJueHKXu8-24" value="Tenant Specific Service" style="rounded=1;whiteSpace=wrap;html=1;verticalAlign=top;" vertex="1" parent="DrSMN-_oZdkLJueHKXu8-1">
          <mxGeometry x="380" y="610" width="200" height="80" as="geometry" />
        </mxCell>
      </root>
    </mxGraphModel>
  </diagram>
</mxfile>
